<svg height="512" viewBox="0 0 128 128" width="512" xmlns="http://www.w3.org/2000/svg"><g><g><path d="m39.621 82.937 20.006-21.3a6 6 0 0 1 8.746 0l35.627 37.931-15.621-16.631 15.621-13.272v-60.92a4 4 0 0 0 -4-4h-72a4 4 0 0 0 -4 4v60.92z" fill="#f2f2fc"/><path d="m59.627 61.64-55.6 59.195a7.971 7.971 0 0 0 5.727 2.42h108.5a7.973 7.973 0 0 0 5.727-2.42l-55.608-59.195a6 6 0 0 0 -8.746 0z" fill="#ffda2d"/><path d="m1.75 58.761v56.494a7.969 7.969 0 0 0 2.273 5.58l35.6-37.9-35.33-30.013a7.971 7.971 0 0 0 -2.543 5.839z" fill="#fdbf00"/><path d="m123.706 52.922-35.327 30.015 35.6 37.9a7.973 7.973 0 0 0 2.273-5.58v-56.496a7.968 7.968 0 0 0 -2.546-5.839z" fill="#fdbf00"/><path d="m74.753 17.608a8.285 8.285 0 0 0 -9.915 4.386l-.838 1.775-.838-1.775a8.285 8.285 0 0 0 -9.915-4.386 8.286 8.286 0 0 0 -4.933 11.736 53.34 53.34 0 0 0 13.727 16.856l1.959 1.593 1.959-1.593a53.354 53.354 0 0 0 13.727-16.856 8.286 8.286 0 0 0 -4.933-11.736z" fill="#ff7cb9"/><g fill="#596c76"><path d="m4.293 52.922 19.707-12.24v28.983z"/><path d="m123.706 52.922-19.706-12.24v28.983z"/></g></g><g><path d="m23.766 97.26-3.9 4.151a1.75 1.75 0 1 0 2.55 2.4l3.9-4.15a1.75 1.75 0 1 0 -2.551-2.4z"/><path d="m124.969 51.714-.033-.034c-.013-.012-.023-.025-.036-.037s-.035-.019-.051-.033a1.768 1.768 0 0 0 -.219-.175l-18.88-11.727v-30.963a5.757 5.757 0 0 0 -5.75-5.745h-72a5.757 5.757 0 0 0 -5.75 5.75v30.959l-18.88 11.726a1.829 1.829 0 0 0 -.217.173c-.017.015-.038.02-.055.036s-.024.026-.038.039l-.026.027a9.78 9.78 0 0 0 -3.034 7.051v56.494a9.761 9.761 0 0 0 9.75 9.75h108.5a9.67 9.67 0 0 0 6.974-2.944 9.689 9.689 0 0 0 2.771-6.8v-56.5a9.776 9.776 0 0 0 -3.026-7.047zm-.469 7.047v56.494a6.2 6.2 0 0 1 -.688 2.849l-32.898-35.024 32.594-27.693a6.167 6.167 0 0 1 .992 3.374zm-3.756-5.619-14.994 12.74v-22.053zm-94.994-44.397a2.252 2.252 0 0 1 2.25-2.245h72a2.253 2.253 0 0 1 2.25 2.25v60.11l-13.735 11.665-18.867-20.083a7.774 7.774 0 0 0 -5.648-2.442 7.775 7.775 0 0 0 -5.648 2.443l-18.866 20.082-13.736-11.67zm-3.5 57.137-14.995-12.74 15-9.313zm-12.5 55.623a6.18 6.18 0 0 1 -3.149-.859l7.371-7.847a1.75 1.75 0 1 0 -2.551-2.4l-7.234 7.7a6.212 6.212 0 0 1 -.687-2.849v-56.489a6.169 6.169 0 0 1 .992-3.374l7.36 6.253 11.015 9.36 9.272 7.878 4.947 4.2-4.874 5.189a1.75 1.75 0 0 0 2.551 2.4l6.134-6.53 20.003-21.299a4.205 4.205 0 0 1 2.156-1.23c.024 0 .047-.017.072-.023.12-.024.247-.023.37-.037a4.364 4.364 0 0 1 .5-.05 4.212 4.212 0 0 1 3.1 1.34l49.645 52.852 4.66 4.961a6.18 6.18 0 0 1 -3.153.854z"/><path d="m60.938 47.56 1.962 1.591a1.753 1.753 0 0 0 2.207 0l1.959-1.591a54.785 54.785 0 0 0 14.173-17.41 10.053 10.053 0 0 0 1.13-4.661 1.77 1.77 0 0 0 -1.759-1.741 1.751 1.751 0 0 0 -1.741 1.759 6.445 6.445 0 0 1 -.737 3.032 51.32 51.32 0 0 1 -13.277 16.3l-.855.699-.855-.695a51.3 51.3 0 0 1 -13.277-16.3 6.535 6.535 0 1 1 11.712-5.8l.837 1.775a1.751 1.751 0 0 0 3.166 0l.838-1.775a6.57 6.57 0 0 1 7.82-3.46 1.75 1.75 0 1 0 1.024-3.347 10.1 10.1 0 0 0 -11.265 4 10.034 10.034 0 0 0 -17.239 10.213 54.783 54.783 0 0 0 14.177 17.411z"/></g></g></svg>