<svg id="Capa_1" enable-background="new 0 0 512 512" height="512" viewBox="0 0 512 512" width="512" xmlns="http://www.w3.org/2000/svg"><g><g><g><g><g><g><g><g><circle cx="256" cy="256" fill="#ffce00" r="256"/></g></g></g></g></g></g></g><path d="m512 256c0-1.413-.011-2.823-.034-4.231l-158.813-158.812-35.732 60.536-108.556-108.557-52.549 392.962 72.697 72.697c8.868.929 17.872 1.405 26.987 1.405 141.385 0 256-114.615 256-256z" fill="#ffa300"/><g><path d="m211.565 99.847h-35.036l2.699-54.911h29.637z" fill="#555a66"/></g><g><path d="m339.418 448.162c-55.612 9.203-111.224 9.203-166.836 0-11.828-1.957-20.829-12.498-21.62-25.354-6.394-103.922-6.394-207.844 0-311.765.791-12.855 9.792-23.396 21.62-25.354 55.612-9.203 111.224-9.203 166.836 0 11.828 1.957 20.829 12.498 21.62 25.354 6.394 103.922 6.394 207.844 0 311.765-.79 12.856-9.792 23.397-21.62 25.354z" fill="#636978"/></g><g><path d="m361.038 111.043c-.791-12.855-9.792-23.396-21.62-25.354-27.766-4.595-55.532-6.894-83.298-6.901v376.274c27.766-.007 55.532-2.306 83.298-6.901 11.828-1.957 20.829-12.498 21.62-25.354 6.394-103.921 6.394-207.843 0-311.764z" fill="#414952"/></g><g><path d="m175.34 109.774h161.32v143.766h-161.32z" fill="#65b1fc"/></g><g><path d="m256.12 109.774h80.539v143.766h-80.539z" fill="#4a7aff"/></g><g><g><circle cx="196.746" cy="295.292" fill="#9196aa" r="21.406"/></g><g><circle cx="315.254" cy="295.292" fill="#707789" r="21.406"/></g><g><circle cx="256" cy="295.292" fill="#9196aa" r="21.406"/></g></g><g><g><circle cx="196.746" cy="351.754" fill="#9196aa" r="21.406"/></g><g><circle cx="315.254" cy="351.754" fill="#707789" r="21.406"/></g><g><circle cx="256" cy="351.754" fill="#9196aa" r="21.406"/></g></g><g><g><circle cx="196.746" cy="408.216" fill="#9196aa" r="21.406"/></g><g><circle cx="315.254" cy="408.216" fill="#707789" r="21.406"/></g><g><circle cx="256" cy="408.216" fill="#9196aa" r="21.406"/></g><g><path d="m277.406 295.292c0-11.781-9.519-21.334-21.285-21.4v42.8c11.765-.066 21.285-9.618 21.285-21.4z" fill="#707789"/></g><g><path d="m277.406 351.754c0-11.781-9.519-21.334-21.285-21.4v42.8c11.765-.066 21.285-9.618 21.285-21.4z" fill="#707789"/></g><g><path d="m277.406 408.216c0-11.781-9.519-21.334-21.285-21.4v42.8c11.765-.066 21.285-9.618 21.285-21.4z" fill="#707789"/></g></g></g></svg>